PathFileType	4	(X/Y/Z)	C:\Github\BTS_project\Data\sports2d_results\test4 Exam_2026-03-06_143128_tvc2_Sports2D\test4 Exam_2026-03-06_143128_tvc2_Sports2D_px_person00.trc
DataRate	CameraRate	NumFrames	NumMarkers	Units	OrigDataRate	OrigDataStartFrame	OrigNumFrames
30.0	30.0	9	22	m	30.0	280	321
Frame#	Time	Hip			RHip			RKnee			RAnkle			RBigToe			RSmallToe			RHeel			LHip			LKnee			LAnkle			LBigToe			LSmallToe			LHeel			Neck			Head			Nose			RShoulder			RElbow			RWrist			LShoulder			LElbow			LWrist			
		X1	Y1	Z1	X2	Y2	Z2	X3	Y3	Z3	X4	Y4	Z4	X5	Y5	Z5	X6	Y6	Z6	X7	Y7	Z7	X8	Y8	Z8	X9	Y9	Z9	X10	Y10	Z10	X11	Y11	Z11	X12	Y12	Z12	X13	Y13	Z13	X14	Y14	Z14	X15	Y15	Z15	X16	Y16	Z16	X17	Y17	Z17	X18	Y18	Z18	X19	Y19	Z19	X20	Y20	Z20	X21	Y21	Z21	X22	Y22	Z22
280	9.362499999999999	318.5288149888763	703.4783247502305	0.0	275.78810671395826	714.385504774604	0.0	292.51524150314486	870.1833834767488	0.0	317.88809671996154	1008.7326320851269	0.0	327.8289831078763	1063.8303481719372	0.0	303.9731524773547	1060.0786196531972	0.0	329.2219150764972	1019.4814846924111	0.0	363.1844708790342	705.5870156420458	0.0	387.8672444849031	845.2932060127767	0.0	357.7086340223553	899.4866220547748	0.0	361.5991361514915	954.3529851533832	0.0	381.4942877698331	947.3313032482151	0.0	346.6426065446276	899.049888953479	0.0	293.2269236786261	484.08958896047966	0.0	281.5593006477263	377.2099945871682	0.0	286.69875888848634	428.96576155649785	0.0	222.58034327240694	531.0136840984251	0.0	138.27795635895168	590.1927946535877	0.0	39.828729770590364	623.9731732245955	0.0	375.2448448937128	512.2566730589122	0.0	462.1801048071085	554.356356716841	0.0	558.3242904222346	572.4175215234774	0.0
281	9.395937499999999	317.89646389126074	703.5914972266451	0.0	275.19576971307623	714.4482096554848	0.0	292.83653695615124	870.1701249153615	0.0	317.5321562240515	1008.7413675471023	0.0	327.58194982620324	1061.6080070107573	0.0	304.17808073748927	1058.2970023807814	0.0	328.20460363161754	1018.9654688470868	0.0	363.4078931092083	705.6512715388096	0.0	388.3849302185341	845.0617952524913	0.0	356.97664534130973	899.9389494091449	0.0	361.4047854301224	955.3345154665141	0.0	380.7981268975859	947.577458199265	0.0	345.5947016439804	899.0705695268764	0.0	293.31778465861873	483.84956816205624	0.0	281.5161237735902	376.4536707992383	0.0	286.86885801692586	428.967053896947	0.0	222.5966131379871	530.8775014557391	0.0	139.1758425974181	590.0283192178299	0.0	41.30723065317144	623.764159071573	0.0	375.61364848388547	512.1627181995135	0.0	462.62253025287345	554.7199099169184	0.0	558.9094207834653	572.6075196637594	0.0
282	9.429374999999999	317.5913835778508	703.6074840137958	0.0	274.90327051081346	714.6894120735608	0.0	292.9135664495826	869.961518467197	0.0	317.1872299672806	1008.8123532499319	0.0	326.9387747553892	1058.5985667294533	0.0	304.10319957632123	1055.5335203226675	0.0	327.57763539705866	1018.8624813519857	0.0	363.9919768732516	705.6595483609551	0.0	389.2693956448247	844.6768227137147	0.0	356.4824823061179	899.9066577181059	0.0	361.3120757913723	955.5797263919665	0.0	379.76314326180636	947.2235992639545	0.0	345.18210338723253	899.4305751340972	0.0	293.3659071842606	483.98192482674915	0.0	281.35157876212173	376.4391624043628	0.0	286.9565358626787	429.7360251332405	0.0	222.45428311285823	530.6346106296918	0.0	140.35201772455883	589.8032966758406	0.0	43.16395229386694	623.391476112799	0.0	375.51256755476794	512.0063611036325	0.0	463.0374828570111	554.9059829148458	0.0	559.409016652371	572.7483320477764	0.0
283	9.462812499999998	317.4836512162026	703.8669549443762	0.0	274.71307543006577	715.092014357319	0.0	292.6578753348388	869.7374542651938	0.0	316.9374715205246	1008.7810534498035	0.0	326.55925985098804	1056.9762867512243	0.0	303.88039443438436	1054.0234678040242	0.0	327.29286791605045	1019.0717186585356	0.0	364.54960776239864	705.8671395233563	0.0	389.78548652871166	844.397694122661	0.0	356.36367342367305	899.7953620172555	0.0	361.33313966690235	955.9580517053921	0.0	379.2553962352123	947.0945872200782	0.0	345.45498928759076	900.2755194017179	0.0	293.37448575065036	484.2357105147215	0.0	281.0816098266395	376.72440004325597	0.0	286.69193757486886	429.8571565864175	0.0	222.5576035109633	530.3179948185712	0.0	141.01806632099215	589.8540667850395	0.0	44.828687203014375	623.1477404048352	0.0	375.06357796307714	512.0267503489181	0.0	463.07499853469665	554.8369138295168	0.0	559.4229083491838	572.7864483376277	0.0
284	9.496249999999998	317.59165779681825	704.4854530336215	0.0	274.74586278754754	715.570838132648	0.0	292.5498221346746	869.6556860752094	0.0	316.93892596068343	1008.7934059925659	0.0	326.593264534253	1057.132954636254	0.0	303.78357404109886	1054.2512369978508	0.0	327.51362879002113	1019.3122849200287	0.0	364.8849167349245	706.4282140049437	0.0	389.6936974313046	844.2892498552981	0.0	356.0784767097408	900.1094916621297	0.0	360.8816186337889	956.5997604522368	0.0	379.0804335154553	947.2132791390096	0.0	345.87977422246274	901.1681914338463	0.0	293.3863774759442	484.2393929082251	0.0	280.90188621526227	376.96933739681515	0.0	286.56955634572716	429.3315363387086	0.0	223.06395766894258	530.1594080698267	0.0	140.80745592073674	590.2579172986188	0.0	45.34053167093128	623.4088099416776	0.0	374.68213268716477	512.2495441525003	0.0	462.90950039129933	554.8367919906635	0.0	558.9302959397121	572.7826336968951	0.0
285	9.529687499999998	318.1112076093831	704.9748012496111	0.0	275.14830625191473	715.9535506969395	0.0	292.74947644400294	869.5783390189437	0.0	317.2620966341243	1008.830576080874	0.0	326.84843383065595	1057.8786356559967	0.0	303.90082956089077	1054.941559210738	0.0	328.49696570938863	1019.3921202944128	0.0	365.04083147175106	706.885111744378	0.0	388.9603773250081	844.3272343207232	0.0	355.4149066072209	901.2118064023928	0.0	360.2618266383612	956.8981458281874	0.0	379.0192698348815	947.4115172418427	0.0	346.0548661281246	901.9653968165524	0.0	293.46077607389395	484.0034138254939	0.0	280.9691779635519	377.50450472575665	0.0	287.04444252250204	429.0418363383565	0.0	223.57902963133455	530.4107364326148	0.0	140.55288899003085	590.5625951952574	0.0	44.81321700426031	624.0275179232228	0.0	374.5716606073761	512.6338598613193	0.0	463.0303742758622	555.0158494056452	0.0	558.2951280262316	572.8745328502912	0.0
286	9.563125	318.7108026318441	705.0909977334693	0.0	275.58253081789434	716.0930760548252	0.0	292.93392831195405	869.5032838375814	0.0	317.8656232723	1008.9669391906923	0.0	327.39852675304746	1058.4885070774958	0.0	304.19501787670623	1055.2387508900756	0.0	329.96726460690536	1019.382433064603	0.0	365.0972091581331	706.8864057363735	0.0	387.89769503336447	844.6781326495732	0.0	355.0901909785851	902.6672453770042	0.0	360.4611173951974	957.5339758684514	0.0	379.28644135026036	947.905100079103	0.0	345.9583235837144	902.4408710730561	0.0	293.63043673181676	483.74175874528873	0.0	281.212232576444	378.3045209677266	0.0	287.49225432536895	429.14770348877244	0.0	223.70329128246388	530.8567334968499	0.0	141.0610314871835	590.5135761357199	0.0	44.32989107431046	624.5340943085414	0.0	374.76574954428173	513.1209466833134	0.0	463.33244714840805	555.3291442328297	0.0	557.5440019951209	573.1135313583669	0.0
287	9.5965625	318.90359336070685	705.1274703446516	0.0	275.586009581482	716.2120810663492	0.0	293.05586074823736	869.6017404423305	0.0	318.5959594133294	1009.3705887066815	0.0	328.3578424348451	1059.3503306543698	0.0	304.4867634021134	1055.5352713022446	0.0	331.0584475759059	1019.554431328958	0.0	365.11563545190705	706.6594387641172	0.0	387.10668419515184	845.4673229184389	0.0	355.25540104085076	903.8940150873016	0.0	361.53504689299973	959.5548617071671	0.0	379.70490305892264	948.9595968903955	0.0	345.5904776994651	902.6809856220866	0.0	293.7841958624866	483.6848938501758	0.0	281.3933811442322	378.6829197132086	0.0	287.389671725567	429.34625299095944	0.0	223.48653237365994	531.126154330189	0.0	141.91210709452844	590.6262288451535	0.0	44.57497141434804	625.0343438184417	0.0	375.1937662683536	513.4956741436413	0.0	463.2546047971757	555.830791593632	0.0	556.6883466550096	573.3992980780358	0.0
288	9.629999999999999	318.823261355614	705.1811993269481	0.0	275.29481179418036	716.6699196692109	0.0	293.38800708312345	869.7269149478929	0.0	319.00299078049636	1009.7652764127845	0.0	329.36053248817024	1060.2408223560687	0.0	304.59523231707	1056.0657766739137	0.0	330.9602756523589	1019.9982457155552	0.0	365.12918162647054	706.4984701675753	0.0	386.9648504134308	846.3171666039691	0.0	354.9033775560743	905.2085179164328	0.0	362.6452878523609	961.5608227242614	0.0	379.871207213987	950.1645632161857	0.0	344.68530492477805	904.0514690683067	0.0	293.84782740391296	483.963079051871	0.0	281.4177573118754	378.45716342019944	0.0	287.12549196670534	429.537137098035	0.0	223.23110078448025	531.2715639402983	0.0	142.259273679385	591.251449785749	0.0	45.194866261097694	626.072288047387	0.0	375.51695672410153	513.5032087631354	0.0	462.91298794580183	556.3800748647935	0.0	556.224689433339	573.5597495268888	0.0
